<svg width="36" height="36" viewBox="0 0 36 36" fill="none" xmlns="http://www.w3.org/2000/svg">
<path d="M16.1558 4.33251C16.9956 2.87795 19.095 2.87795 19.9348 4.33252L30.5162 22.66C31.356 24.1146 30.3063 25.9328 28.6267 25.9328H7.46391C5.78433 25.9328 4.73459 24.1146 5.57438 22.66L16.1558 4.33251Z" stroke="#C56A09" stroke-width="0.872738"/>
<path d="M16.9108 17.4559L16.5268 12.5685V9.07757H18.7959V12.5685L18.3945 17.4559H16.9108ZM18.5865 21.1214C18.3305 21.3774 18.0221 21.5054 17.6614 21.5054C17.3006 21.5054 16.9923 21.3774 16.7363 21.1214C16.4803 20.8653 16.3523 20.557 16.3523 20.1962C16.3523 19.8355 16.4744 19.5272 16.7188 19.2711C16.9748 19.0151 17.289 18.8871 17.6614 18.8871C18.0221 18.8871 18.3305 19.0151 18.5865 19.2711C18.8425 19.5272 18.9705 19.8355 18.9705 20.1962C18.9705 20.557 18.8425 20.8653 18.5865 21.1214Z" fill="#F79009"/>
</svg>
